<svg width="19" height="19" viewBox="0 0 19 19" fill="none" xmlns="http://www.w3.org/2000/svg">
<path fill-rule="evenodd" clip-rule="evenodd" d="M1.70331 3.51945L7.29868 10.136V14.5856C7.29868 14.8586 7.45291 15.1081 7.69708 15.2302L10.58 16.6717C11.0592 16.9113 11.623 16.5628 11.623 16.027V10.136L17.2184 3.51945C17.6145 3.051 17.2815 2.33334 16.668 2.33334H2.25363C1.64013 2.33334 1.30716 3.051 1.70331 3.51945ZM3.807 3.77477H15.1147L10.352 9.40668C10.2419 9.53679 10.1816 9.70167 10.1816 9.87207V14.8609L8.74012 14.1402V9.87207C8.74012 9.70167 8.67974 9.53679 8.56972 9.40668L3.807 3.77477Z" fill="black"/>
<mask id="mask0_3_950" style="mask-type:alpha" maskUnits="userSpaceOnUse" x="1" y="2" width="17" height="15">
<path fill-rule="evenodd" clip-rule="evenodd" d="M1.70331 3.51945L7.29868 10.136V14.5856C7.29868 14.8586 7.45291 15.1081 7.69708 15.2302L10.58 16.6717C11.0592 16.9113 11.623 16.5628 11.623 16.027V10.136L17.2184 3.51945C17.6145 3.051 17.2815 2.33334 16.668 2.33334H2.25363C1.64013 2.33334 1.30716 3.051 1.70331 3.51945ZM3.807 3.77477H15.1147L10.352 9.40668C10.2419 9.53679 10.1816 9.70167 10.1816 9.87207V14.8609L8.74012 14.1402V9.87207C8.74012 9.70167 8.67974 9.53679 8.56972 9.40668L3.807 3.77477Z" fill="white"/>
</mask>
<g mask="url(#mask0_3_950)">
<rect x="0.810806" y="0.891907" width="17.2973" height="17.2973" fill="#404040"/>
</g>
</svg>
