<svg width="18" height="15" viewBox="0 0 18 15" fill="none" xmlns="http://www.w3.org/2000/svg">
<path d="M17.2274 7.31609C17.2055 9.27401 16.4085 11.1434 15.011 12.5149C13.6135 13.8864 11.7294 14.648 9.77139 14.6331C8.73472 14.6356 7.70879 14.4232 6.75836 14.0093C5.80793 13.5953 4.95363 12.9888 4.24939 12.2281L4.23339 12.2431L1.34039 14.8731C1.24743 14.955 1.12778 15.0002 1.00389 15.0002C0.87999 15.0002 0.760347 14.955 0.667387 14.8731C0.622961 14.8355 0.587257 14.7888 0.562767 14.736C0.538277 14.6832 0.525591 14.6258 0.525591 14.5676C0.525591 14.5094 0.538277 14.452 0.562767 14.3992C0.587257 14.3464 0.622961 14.2996 0.667387 14.2621L3.56039 11.6321C3.59909 11.5968 3.64335 11.568 3.69139 11.5471C2.79662 10.3179 2.31485 8.83649 2.31539 7.31609C2.33755 5.35835 3.13466 3.48918 4.53215 2.11793C5.92963 0.746693 7.81357 -0.0148481 9.77139 9.37218e-05C11.7292 -0.0148481 13.6131 0.746693 15.0106 2.11793C16.4081 3.48918 17.2052 5.35835 17.2274 7.31609ZM9.77139 0.829094C8.03517 0.81496 6.3642 1.48992 5.1249 2.70598C3.8856 3.92203 3.17913 5.57992 3.16039 7.31609C3.17991 9.05175 3.88674 10.7089 5.12595 11.9243C6.36517 13.1397 8.03568 13.8142 9.77139 13.8001C11.5069 13.814 13.1772 13.1393 14.4162 11.9239C15.6552 10.7085 16.3619 9.05157 16.3814 7.31609C16.3626 5.58009 15.6563 3.92236 14.4172 2.70633C13.1781 1.49031 11.5074 0.815227 9.77139 0.829094Z" fill="#5F5F5F"/>
</svg>
